<?xml version="1.0" encoding="iso-8859-1"?>
<!-- Generator: Adobe Illustrator 19.0.0, SVG Export Plug-In . SVG Version: 6.00 Build 0)  -->
<svg version="1.1" id="Layer_1" xmlns="http://www.w3.org/2000/svg" xmlns:xlink="http://www.w3.org/1999/xlink" x="0px" y="0px"
	 viewBox="0 0 224.773 224.773" style="enable-background:new 0 0 224.773 224.773;" xml:space="preserve">
<g>
	<path style="fill:#3FA9F5;" d="M25.703,117.457c-0.962,1.192-2.292,1.421-3.483,1.1c-0.413,0.229-0.962,0.458-1.558,0.504
		c-3.804,0.412-8.388-0.092-11.917-1.65c-0.55-0.275-0.917-0.733-1.1-1.329c-1.054,0-2.017-0.596-2.429-1.787
		c-1.971-6.554,0.963-15.905,1.925-22.596c1.558-10.405,3.208-20.809,4.904-31.167c0.504-3.208,3.85-3.254,5.821-1.558
		c16.088-4.217,38.364-1.879,53.672,1.283c0.963,0.229,1.604,0.779,1.971,1.467c0.229,0.137,0.458,0.229,0.642,0.412
		c1.971,1.558,1.512,3.758,1.283,6.004c-0.229,2.108-0.642,4.125-1.329,6.142c0.642,1.742,0.046,3.942-2.063,4.309
		c-12.788,2.017-27.272,0.504-40.564-0.321c-0.825,4.996-1.971,10.175-3.346,15.034c15.4-7.7,39.83-8.617,49.776,5.179
		c8.204-9.946,24.613-13.2,36.622-11.459c11.642,1.742,23.192,8.342,30.251,17.967c12.971-13.75,30.343-24.842,49.868-21.451
		c19.755,3.438,29.701,18.517,30.113,37.768c0.367,20.259-8.754,37.493-29.518,42.168c-16.546,3.713-34.009-1.971-45.743-13.705
		c-15.538,23.376-56.606,24.934-73.015,1.421C57.742,177.409-3.677,172.275,0.173,134.37c0.092-1.192,0.963-1.925,1.879-2.108
		c0.092-0.137,0.183-0.275,0.321-0.367c2.658-1.512,5.821-1.421,8.8-1.467c3.483-0.137,7.058-0.367,10.542,0.046
		c2.2,0.229,3.254,1.879,3.208,3.483c4.354,6.463,11.138,10.954,19.342,8.846c6.692-1.742,10.863-8.067,10.771-14.85
		c-0.092-6.829-5.913-13.796-12.146-16.271C36.199,108.978,29.92,112.232,25.703,117.457z M181.22,137.762
		c9.992,3.071,23.055-1.329,20.351-14.071c-4.492-21.221-27.363-3.3-38.089,4.858C169.028,132.216,174.941,135.837,181.22,137.762z
		 M128.648,129.787c-4.446-3.621-8.709-7.334-13.521-10.496c-3.667-2.383-5.821-4.125-10.221-2.613
		c-5.133,1.833-5.363,5.867-2.154,10.175C108.939,135.104,119.389,132.124,128.648,129.787z"/>
</g>
<g>
</g>
<g>
</g>
<g>
</g>
<g>
</g>
<g>
</g>
<g>
</g>
<g>
</g>
<g>
</g>
<g>
</g>
<g>
</g>
<g>
</g>
<g>
</g>
<g>
</g>
<g>
</g>
<g>
</g>
</svg>
